HIERARCHY
ROOT Hips
{
	OFFSET 0.000000 1.471914 24.280096
	CHANNELS 6 Xposition Yposition Zposition Xrotation Yrotation Zrotation
	JOINT Spine
	{
		OFFSET 0.000000 0.900110 1.860670
		CHANNELS 6 Xposition Yposition Zposition Xrotation Yrotation Zrotation
		JOINT Spine1
		{
			OFFSET 0.000000 0.400320 2.270309
			CHANNELS 6 Xposition Yposition Zposition Xrotation Yrotation Zrotation
			JOINT Spine2
			{
				OFFSET 0.000000 0.200920 2.296560
				CHANNELS 6 Xposition Yposition Zposition Xrotation Yrotation Zrotation
				JOINT Spine3
				{
					OFFSET 0.000000 0.000000 2.305330
					CHANNELS 6 Xposition Yposition Zposition Xrotation Yrotation Zrotation
					JOINT Neck
					{
						OFFSET 0.000000 -0.864490 6.051487
						CHANNELS 6 Xposition Yposition Zposition Xrotation Yrotation Zrotation
						JOINT Head
						{
							OFFSET 0.000000 -0.550429 3.121674
							CHANNELS 6 Xposition Yposition Zposition Xrotation Yrotation Zrotation
							End Site
							{
								OFFSET 0.000000 0.000000 3.731750
							}
						}
					}
					JOINT RightShoulder
					{
						OFFSET -0.788280 -1.313800 4.256718
						CHANNELS 6 Xposition Yposition Zposition Xrotation Yrotation Zrotation
						JOINT RightArm
						{
							OFFSET -3.915130 0.000000 0.000000
							CHANNELS 6 Xposition Yposition Zposition Xrotation Yrotation Zrotation
							JOINT RightForeArm
							{
								OFFSET -6.914910 0.000000 0.000000
								CHANNELS 6 Xposition Yposition Zposition Xrotation Yrotation Zrotation
								JOINT RightHand
								{
									OFFSET -6.096219 0.000000 0.000000
									CHANNELS 6 Xposition Yposition Zposition Xrotation Yrotation Zrotation
									JOINT RightHandEnd
									{
										OFFSET -1.749950 0.000000 0.000000
										CHANNELS 6 Xposition Yposition Zposition Xrotation Yrotation Zrotation
										End Site
										{
											OFFSET -1.749950 0.000000 0.000000
										}
									}
									JOINT RightHandThumb1
									{
										OFFSET -0.699980 -1.166630 -0.466648
										CHANNELS 6 Xposition Yposition Zposition Xrotation Yrotation Zrotation
										End Site
										{
											OFFSET -1.690319 -0.452920 0.000000
										}
									}
								}
							}
						}
					}
					JOINT LeftShoulder
					{
						OFFSET 0.788280 -1.313800 4.256718
						CHANNELS 6 Xposition Yposition Zposition Xrotation Yrotation Zrotation
						JOINT LeftArm
						{
							OFFSET 3.915130 0.000000 0.000000
							CHANNELS 6 Xposition Yposition Zposition Xrotation Yrotation Zrotation
							JOINT LeftForeArm
							{
								OFFSET 6.914910 0.000000 0.000000
								CHANNELS 6 Xposition Yposition Zposition Xrotation Yrotation Zrotation
								JOINT LeftHand
								{
									OFFSET 6.096219 0.000000 0.000000
									CHANNELS 6 Xposition Yposition Zposition Xrotation Yrotation Zrotation
									JOINT LeftHandEnd
									{
										OFFSET 1.749950 0.000000 0.000000
										CHANNELS 6 Xposition Yposition Zposition Xrotation Yrotation Zrotation
										End Site
										{
											OFFSET 1.749950 0.000000 0.000000
										}
									}
									JOINT LeftHandThumb1
									{
										OFFSET 0.699980 -1.166630 -0.466648
										CHANNELS 6 Xposition Yposition Zposition Xrotation Yrotation Zrotation
										End Site
										{
											OFFSET 1.690319 -0.452920 0.000000
										}
									}
								}
							}
						}
					}
				}
			}
		}
	}
	JOINT RightUpLeg
	{
		OFFSET -2.338570 -0.252550 -0.551512
		CHANNELS 6 Xposition Yposition Zposition Xrotation Yrotation Zrotation
		JOINT RightLeg
		{
			OFFSET 0.000000 0.000000 -10.744959
			CHANNELS 6 Xposition Yposition Zposition Xrotation Yrotation Zrotation
			JOINT RightFoot
			{
				OFFSET 0.000000 -0.000001 -10.930849
				CHANNELS 6 Xposition Yposition Zposition Xrotation Yrotation Zrotation
				JOINT RightToeBase
				{
					OFFSET 0.000000 -4.087269 -1.487650
					CHANNELS 6 Xposition Yposition Zposition Xrotation Yrotation Zrotation
					End Site
					{
						OFFSET 0.000000 -1.891870 0.000000
					}
				}
			}
		}
	}
	JOINT LeftUpLeg
	{
		OFFSET 2.338570 -0.252550 -0.551512
		CHANNELS 6 Xposition Yposition Zposition Xrotation Yrotation Zrotation
		JOINT LeftLeg
		{
			OFFSET 0.000000 0.000000 -10.744959
			CHANNELS 6 Xposition Yposition Zposition Xrotation Yrotation Zrotation
			JOINT LeftFoot
			{
				OFFSET 0.000000 -0.000001 -10.930849
				CHANNELS 6 Xposition Yposition Zposition Xrotation Yrotation Zrotation
				JOINT LeftToeBase
				{
					OFFSET 0.000000 -4.087269 -1.487650
					CHANNELS 6 Xposition Yposition Zposition Xrotation Yrotation Zrotation
					End Site
					{
						OFFSET 0.000000 -1.891870 0.000000
					}
				}
			}
		}
	}
}
MOTION
Frames: 4
Frame Time: 0.041667
0.000010 26.558773 40.444492 -11.250233 6.907881 -21.387409 -0.000004 0.900095 1.860715 26.639244 -8.214883 -1.678610 -0.000001 0.400303 2.270281 -0.000010 -0.000002 0.000001 0.000012 0.200926 2.296530 0.000000 0.000001 -0.000000 0.000005 -0.000029 2.305346 -0.000000 0.000002 -0.022771 -0.000008 -0.864462 6.051496 0.725735 3.689486 -168.611744 0.000020 -0.550439 3.121689 0.000002 -0.000000 0.000000 -0.788288 -1.313749 4.256748 -187.574726 50.303353 -3.188181 -3.915092 -0.000002 -0.000012 -0.000001 -0.000001 -0.000000 -6.914881 -0.000002 -0.000004 0.000011 0.000011 -27.357599 -6.096197 -0.000010 0.000014 -0.000013 0.000025 -0.000015 -1.749927 0.000014 0.000008 0.000003 0.000001 0.000001 -0.700020 -1.166620 -0.466644 0.000011 0.000003 -0.000004 0.788270 -1.313800 4.256719 -98.022982 -32.028635 85.835807 3.915150 -0.000015 0.000004 0.000001 -0.000001 -0.000000 6.914898 -0.000008 -0.000023 0.000023 -0.000031 30.003095 6.096218 0.000056 -0.000005 0.000019 -0.000026 -0.000016 1.749931 0.000017 0.000015 0.000001 -0.000003 -0.000004 0.699979 -1.166599 -0.466650 0.000013 -0.000001 -0.000021 -2.338584 -0.252555 -0.551519 19.569190 -3.883344 -1.236748 0.000010 -0.000017 -10.744946 10.172323 4.191764 -1.292400 -0.000017 0.000013 -10.930853 -0.000007 0.000000 -0.000003 0.000010 -4.087268 -1.487636 0.000003 0.000001 -0.000004 2.338571 -0.252547 -0.551469 15.963593 -2.689380 -1.016151 -0.000006 -0.000009 -10.744919 8.815198 1.485726 -0.956334 -0.000001 -0.000012 -10.930863 0.000009 -0.000001 -0.000003 -0.000011 -4.087223 -1.487647 -0.000001 -0.000001 -0.000001 
0.000011 26.558767 40.444458 -10.754226 8.975060 -22.702096 -0.000005 0.900097 1.860717 26.046873 -6.980461 -1.179614 -0.000002 0.400304 2.270283 -0.000009 -0.000002 0.000003 0.000010 0.200927 2.296541 0.000000 -0.000001 -0.000001 0.000004 -0.000037 2.305342 0.000005 0.000003 -0.331428 -0.000012 -0.864462 6.051497 2.350952 -0.250012 -168.230728 0.000019 -0.550444 3.121693 0.000001 -0.000000 0.000001 -0.788290 -1.313749 4.256746 -190.409609 49.385027 -1.443260 -3.915094 -0.000001 -0.000030 0.000000 0.000004 0.000001 -6.914879 0.000004 -0.000004 0.000011 0.000007 -29.118620 -6.096189 -0.000011 0.000018 -0.000014 0.000022 -0.000021 -1.749930 0.000017 0.000008 0.000003 -0.000003 -0.000002 -0.700019 -1.166619 -0.466645 0.000009 0.000001 -0.000003 0.788269 -1.313799 4.256717 -97.847132 -26.632914 86.319678 3.915154 -0.000014 0.000012 -0.000000 -0.000001 -0.000001 6.914906 -0.000008 -0.000024 0.000023 -0.000027 32.752550 6.096211 0.000057 -0.000004 0.000019 -0.000025 -0.000015 1.749935 0.000012 0.000011 0.000002 -0.000001 -0.000001 0.699977 -1.166603 -0.466654 0.000011 0.000002 -0.000018 -2.338586 -0.252556 -0.551510 20.474298 -5.930643 -0.935077 0.000010 -0.000019 -10.744949 9.150788 4.028062 -1.334979 -0.000018 0.000014 -10.930851 -0.000003 0.000004 -0.000004 0.000009 -4.087267 -1.487635 0.000005 0.000001 -0.000001 2.338570 -0.252546 -0.551472 16.777624 -4.407811 -0.772010 -0.000003 -0.000012 -10.744920 9.038797 0.187563 -1.098158 -0.000002 -0.000008 -10.930865 0.000012 0.000000 0.000001 -0.000011 -4.087231 -1.487647 0.000001 -0.000001 -0.000002 
0.000013 26.558764 40.444443 -10.200672 10.753616 -23.604275 -0.000005 0.900101 1.860710 25.510903 -5.751459 -0.794646 -0.000001 0.400307 2.270291 -0.000009 -0.000002 0.000002 0.000010 0.200927 2.296532 -0.000002 0.000000 0.000001 0.000003 -0.000035 2.305346 0.000003 0.000003 -0.309377 -0.000011 -0.864461 6.051501 3.355299 -3.501428 -168.860212 0.000018 -0.550446 3.121700 -0.000000 -0.000001 0.000001 -0.788291 -1.313750 4.256754 -189.421022 48.457726 -3.123829 -3.915094 0.000001 -0.000019 0.000000 -0.000000 -0.000001 -6.914878 -0.000000 -0.000002 0.000015 0.000005 -30.482506 -6.096198 -0.000014 0.000006 -0.000012 0.000026 -0.000018 -1.749927 0.000009 0.000001 0.000003 -0.000002 0.000000 -0.700017 -1.166626 -0.466651 0.000004 0.000001 -0.000002 0.788268 -1.313799 4.256729 -99.316462 -23.470098 86.054680 3.915157 -0.000013 0.000012 -0.000000 -0.000001 -0.000001 6.914897 -0.000009 -0.000028 0.000023 -0.000025 34.050423 6.096220 0.000053 -0.000004 0.000021 -0.000026 -0.000019 1.749939 0.000015 0.000015 0.000001 -0.000004 -0.000001 0.699984 -1.166600 -0.466654 0.000010 0.000001 -0.000015 -2.338584 -0.252552 -0.551518 21.141625 -7.737776 -0.666851 0.000011 -0.000016 -10.744950 8.727671 3.916554 -1.431136 -0.000016 0.000011 -10.930850 -0.000010 0.000002 -0.000004 0.000010 -4.087269 -1.487637 0.000002 0.000001 0.000003 2.338570 -0.252543 -0.551475 17.342438 -5.804206 -0.551457 -0.000005 -0.000014 -10.744919 9.249280 -0.615109 -1.224406 -0.000001 -0.000009 -10.930867 0.000010 -0.000001 0.000000 -0.000012 -4.087228 -1.487649 0.000002 -0.000000 -0.000004 
0.000014 26.558758 40.444443 -10.284218 12.208537 -24.636682 -0.000006 0.900098 1.860719 25.587453 -3.850704 -0.688393 -0.000001 0.400304 2.270285 -0.000009 -0.000002 0.000005 0.000011 0.200929 2.296522 0.000001 0.000001 0.000001 0.000005 -0.000033 2.305350 0.000003 0.000003 0.292524 -0.000007 -0.864466 6.051494 4.358789 -6.733122 -168.194665 0.000020 -0.550440 3.121700 0.000001 0.000002 -0.000001 -0.788290 -1.313748 4.256747 -186.515678 48.286220 -5.815034 -3.915095 -0.000000 -0.000023 -0.000000 0.000005 0.000000 -6.914880 0.000001 0.000013 0.000012 0.000008 -31.171785 -6.096195 -0.000013 0.000016 -0.000007 0.000024 -0.000020 -1.749927 0.000006 0.000001 0.000000 0.000001 -0.000000 -0.700016 -1.166628 -0.466655 0.000004 0.000001 -0.000001 0.788270 -1.313804 4.256720 -99.282018 -23.047626 85.610021 3.915158 -0.000013 0.000015 0.000001 -0.000001 -0.000001 6.914903 -0.000009 -0.000028 0.000023 -0.000027 33.433411 6.096217 0.000056 -0.000004 0.000017 -0.000024 -0.000017 1.749936 0.000014 0.000015 0.000002 -0.000004 -0.000006 0.699981 -1.166600 -0.466658 0.000011 -0.000001 -0.000017 -2.338585 -0.252557 -0.551512 22.246722 -8.618732 -0.608060 0.000009 -0.000015 -10.744947 8.685292 3.580803 -1.523105 -0.000017 0.000014 -10.930847 -0.000005 0.000003 -0.000003 0.000008 -4.087267 -1.487639 0.000000 0.000002 0.000002 2.338569 -0.252544 -0.551467 18.458965 -6.698353 -0.509107 -0.000005 -0.000010 -10.744920 9.321562 -1.488565 -1.345267 0.000001 -0.000006 -10.930863 0.000010 -0.000001 -0.000004 -0.000008 -4.087230 -1.487647 0.000003 -0.000002 -0.000005 
